<svg preserveAspectRatio="none" overflow="visible" style="display: block;" width="24" height="24" viewBox="0 0 24 24" fill="none" xmlns="http://www.w3.org/2000/svg">
<g id="carbon:document">
<path id="carbon:document-glyph" d="M18 8.70703V19.5C18 20.3284 17.3284 21 16.5 21H7.5C6.67157 21 6 20.3284 6 19.5V4.5C6 3.67157 6.67157 3 7.5 3H12.293L18 8.70703ZM9 16C8.72386 16 8.5 16.2239 8.5 16.5V16.9004C8.50021 17.1764 8.72399 17.4004 9 17.4004H12C12.276 17.4004 12.4998 17.1764 12.5 16.9004V16.5C12.5 16.2239 12.2761 16 12 16H9ZM9 13C8.72386 13 8.5 13.2239 8.5 13.5V13.9004C8.50021 14.1764 8.72399 14.4004 9 14.4004H14C14.276 14.4004 14.4998 14.1764 14.5 13.9004V13.5C14.5 13.2239 14.2761 13 14 13H9ZM9 10C8.72386 10 8.5 10.2239 8.5 10.5V10.9004C8.50021 11.1764 8.72399 11.4004 9 11.4004H14C14.276 11.4004 14.4998 11.1764 14.5 10.9004V10.5C14.5 10.2239 14.2761 10 14 10H9Z" fill="currentColor"/>
</g>
</svg>
